<svg xmlns="http://www.w3.org/2000/svg" viewBox="0 0 32 18" shape-rendering="crispEdges">
  <title>Pixel hamster accountant at a desk with a ledger and stacked seeds</title>
  <rect width="32" height="18" fill="#fbf1de"/>
  <rect x="2" y="1" width="1" height="1" fill="#f4e4c1"/>
  <rect x="3" y="1" width="1" height="1" fill="#f4e4c1"/>
  <rect x="27" y="1" width="1" height="1" fill="#f4e4c1"/>
  <rect x="28" y="1" width="1" height="1" fill="#f4e4c1"/>
  <rect x="2" y="2" width="1" height="1" fill="#f4e4c1"/>
  <rect x="3" y="2" width="1" height="1" fill="#f4e4c1"/>
  <rect x="12" y="2" width="1" height="1" fill="#8e979c"/>
  <rect x="13" y="2" width="1" height="1" fill="#8e979c"/>
  <rect x="18" y="2" width="1" height="1" fill="#8e979c"/>
  <rect x="19" y="2" width="1" height="1" fill="#8e979c"/>
  <rect x="27" y="2" width="1" height="1" fill="#f4e4c1"/>
  <rect x="28" y="2" width="1" height="1" fill="#f4e4c1"/>
  <rect x="12" y="3" width="1" height="1" fill="#e88fa0"/>
  <rect x="13" y="3" width="1" height="1" fill="#8e979c"/>
  <rect x="18" y="3" width="1" height="1" fill="#8e979c"/>
  <rect x="19" y="3" width="1" height="1" fill="#e88fa0"/>
  <rect x="10" y="4" width="1" height="1" fill="#0c343d"/>
  <rect x="11" y="4" width="1" height="1" fill="#42b2ae"/>
  <rect x="12" y="4" width="1" height="1" fill="#42b2ae"/>
  <rect x="13" y="4" width="1" height="1" fill="#42b2ae"/>
  <rect x="14" y="4" width="1" height="1" fill="#42b2ae"/>
  <rect x="15" y="4" width="1" height="1" fill="#42b2ae"/>
  <rect x="16" y="4" width="1" height="1" fill="#42b2ae"/>
  <rect x="17" y="4" width="1" height="1" fill="#42b2ae"/>
  <rect x="18" y="4" width="1" height="1" fill="#42b2ae"/>
  <rect x="19" y="4" width="1" height="1" fill="#42b2ae"/>
  <rect x="20" y="4" width="1" height="1" fill="#42b2ae"/>
  <rect x="21" y="4" width="1" height="1" fill="#0c343d"/>
  <rect x="11" y="5" width="1" height="1" fill="#8e979c"/>
  <rect x="12" y="5" width="1" height="1" fill="#8e979c"/>
  <rect x="13" y="5" width="1" height="1" fill="#8e979c"/>
  <rect x="14" y="5" width="1" height="1" fill="#8e979c"/>
  <rect x="15" y="5" width="1" height="1" fill="#8e979c"/>
  <rect x="16" y="5" width="1" height="1" fill="#8e979c"/>
  <rect x="17" y="5" width="1" height="1" fill="#8e979c"/>
  <rect x="18" y="5" width="1" height="1" fill="#8e979c"/>
  <rect x="19" y="5" width="1" height="1" fill="#8e979c"/>
  <rect x="20" y="5" width="1" height="1" fill="#8e979c"/>
  <rect x="11" y="6" width="1" height="1" fill="#b4bcc0"/>
  <rect x="12" y="6" width="1" height="1" fill="#8e979c"/>
  <rect x="13" y="6" width="1" height="1" fill="#8e979c"/>
  <rect x="14" y="6" width="1" height="1" fill="#8e979c"/>
  <rect x="15" y="6" width="1" height="1" fill="#8e979c"/>
  <rect x="16" y="6" width="1" height="1" fill="#8e979c"/>
  <rect x="17" y="6" width="1" height="1" fill="#8e979c"/>
  <rect x="18" y="6" width="1" height="1" fill="#8e979c"/>
  <rect x="19" y="6" width="1" height="1" fill="#8e979c"/>
  <rect x="20" y="6" width="1" height="1" fill="#b4bcc0"/>
  <rect x="11" y="7" width="1" height="1" fill="#b4bcc0"/>
  <rect x="12" y="7" width="1" height="1" fill="#8e979c"/>
  <rect x="13" y="7" width="1" height="1" fill="#8e979c"/>
  <rect x="14" y="7" width="1" height="1" fill="#0c343d"/>
  <rect x="15" y="7" width="1" height="1" fill="#8e979c"/>
  <rect x="16" y="7" width="1" height="1" fill="#8e979c"/>
  <rect x="17" y="7" width="1" height="1" fill="#0c343d"/>
  <rect x="18" y="7" width="1" height="1" fill="#8e979c"/>
  <rect x="19" y="7" width="1" height="1" fill="#8e979c"/>
  <rect x="20" y="7" width="1" height="1" fill="#b4bcc0"/>
  <rect x="11" y="8" width="1" height="1" fill="#8e979c"/>
  <rect x="12" y="8" width="1" height="1" fill="#8e979c"/>
  <rect x="13" y="8" width="1" height="1" fill="#8e979c"/>
  <rect x="14" y="8" width="1" height="1" fill="#8e979c"/>
  <rect x="15" y="8" width="1" height="1" fill="#e88fa0"/>
  <rect x="16" y="8" width="1" height="1" fill="#e88fa0"/>
  <rect x="17" y="8" width="1" height="1" fill="#8e979c"/>
  <rect x="18" y="8" width="1" height="1" fill="#8e979c"/>
  <rect x="19" y="8" width="1" height="1" fill="#8e979c"/>
  <rect x="20" y="8" width="1" height="1" fill="#8e979c"/>
  <rect x="11" y="9" width="1" height="1" fill="#8e979c"/>
  <rect x="12" y="9" width="1" height="1" fill="#8e979c"/>
  <rect x="13" y="9" width="1" height="1" fill="#8e979c"/>
  <rect x="14" y="9" width="1" height="1" fill="#8e979c"/>
  <rect x="15" y="9" width="1" height="1" fill="#0c343d"/>
  <rect x="16" y="9" width="1" height="1" fill="#8e979c"/>
  <rect x="17" y="9" width="1" height="1" fill="#8e979c"/>
  <rect x="18" y="9" width="1" height="1" fill="#8e979c"/>
  <rect x="19" y="9" width="1" height="1" fill="#8e979c"/>
  <rect x="20" y="9" width="1" height="1" fill="#8e979c"/>
  <rect x="11" y="10" width="1" height="1" fill="#8e979c"/>
  <rect x="12" y="10" width="1" height="1" fill="#8e979c"/>
  <rect x="13" y="10" width="1" height="1" fill="#8e979c"/>
  <rect x="14" y="10" width="1" height="1" fill="#8e979c"/>
  <rect x="15" y="10" width="1" height="1" fill="#8e979c"/>
  <rect x="16" y="10" width="1" height="1" fill="#8e979c"/>
  <rect x="17" y="10" width="1" height="1" fill="#8e979c"/>
  <rect x="18" y="10" width="1" height="1" fill="#8e979c"/>
  <rect x="19" y="10" width="1" height="1" fill="#8e979c"/>
  <rect x="20" y="10" width="1" height="1" fill="#8e979c"/>
  <rect x="10" y="11" width="1" height="1" fill="#8e979c"/>
  <rect x="11" y="11" width="1" height="1" fill="#8e979c"/>
  <rect x="12" y="11" width="1" height="1" fill="#8e979c"/>
  <rect x="13" y="11" width="1" height="1" fill="#8e979c"/>
  <rect x="14" y="11" width="1" height="1" fill="#8e979c"/>
  <rect x="15" y="11" width="1" height="1" fill="#8e979c"/>
  <rect x="16" y="11" width="1" height="1" fill="#8e979c"/>
  <rect x="17" y="11" width="1" height="1" fill="#8e979c"/>
  <rect x="18" y="11" width="1" height="1" fill="#8e979c"/>
  <rect x="19" y="11" width="1" height="1" fill="#8e979c"/>
  <rect x="20" y="11" width="1" height="1" fill="#8e979c"/>
  <rect x="21" y="11" width="1" height="1" fill="#8e979c"/>
  <rect x="9" y="12" width="1" height="1" fill="#8e979c"/>
  <rect x="10" y="12" width="1" height="1" fill="#e9edee"/>
  <rect x="11" y="12" width="1" height="1" fill="#8e979c"/>
  <rect x="12" y="12" width="1" height="1" fill="#8e979c"/>
  <rect x="13" y="12" width="1" height="1" fill="#8e979c"/>
  <rect x="14" y="12" width="1" height="1" fill="#8e979c"/>
  <rect x="15" y="12" width="1" height="1" fill="#8e979c"/>
  <rect x="16" y="12" width="1" height="1" fill="#8e979c"/>
  <rect x="17" y="12" width="1" height="1" fill="#8e979c"/>
  <rect x="18" y="12" width="1" height="1" fill="#8e979c"/>
  <rect x="19" y="12" width="1" height="1" fill="#8e979c"/>
  <rect x="20" y="12" width="1" height="1" fill="#8e979c"/>
  <rect x="22" y="12" width="1" height="1" fill="#8e979c"/>
  <rect x="25" y="12" width="1" height="1" fill="#6b5335"/>
  <rect x="9" y="13" width="1" height="1" fill="#e9edee"/>
  <rect x="10" y="13" width="1" height="1" fill="#e9edee"/>
  <rect x="11" y="13" width="1" height="1" fill="#8e979c"/>
  <rect x="12" y="13" width="1" height="1" fill="#8e979c"/>
  <rect x="13" y="13" width="1" height="1" fill="#8e979c"/>
  <rect x="14" y="13" width="1" height="1" fill="#8e979c"/>
  <rect x="15" y="13" width="1" height="1" fill="#8e979c"/>
  <rect x="16" y="13" width="1" height="1" fill="#8e979c"/>
  <rect x="17" y="13" width="1" height="1" fill="#8e979c"/>
  <rect x="18" y="13" width="1" height="1" fill="#8e979c"/>
  <rect x="19" y="13" width="1" height="1" fill="#8e979c"/>
  <rect x="20" y="13" width="1" height="1" fill="#8e979c"/>
  <rect x="22" y="13" width="1" height="1" fill="#e8934a"/>
  <rect x="23" y="13" width="1" height="1" fill="#e8934a"/>
  <rect x="24" y="13" width="1" height="1" fill="#e8934a"/>
  <rect x="3" y="14" width="1" height="1" fill="#a9784f"/>
  <rect x="4" y="14" width="1" height="1" fill="#a9784f"/>
  <rect x="5" y="14" width="1" height="1" fill="#a9784f"/>
  <rect x="6" y="14" width="1" height="1" fill="#a9784f"/>
  <rect x="7" y="14" width="1" height="1" fill="#a9784f"/>
  <rect x="8" y="14" width="1" height="1" fill="#a9784f"/>
  <rect x="9" y="14" width="1" height="1" fill="#a9784f"/>
  <rect x="10" y="14" width="1" height="1" fill="#a9784f"/>
  <rect x="11" y="14" width="1" height="1" fill="#8e979c"/>
  <rect x="12" y="14" width="1" height="1" fill="#8e979c"/>
  <rect x="13" y="14" width="1" height="1" fill="#8e979c"/>
  <rect x="14" y="14" width="1" height="1" fill="#8e979c"/>
  <rect x="15" y="14" width="1" height="1" fill="#8e979c"/>
  <rect x="16" y="14" width="1" height="1" fill="#8e979c"/>
  <rect x="17" y="14" width="1" height="1" fill="#8e979c"/>
  <rect x="18" y="14" width="1" height="1" fill="#8e979c"/>
  <rect x="19" y="14" width="1" height="1" fill="#8e979c"/>
  <rect x="20" y="14" width="1" height="1" fill="#8e979c"/>
  <rect x="21" y="14" width="1" height="1" fill="#a9784f"/>
  <rect x="22" y="14" width="1" height="1" fill="#a9784f"/>
  <rect x="23" y="14" width="1" height="1" fill="#a9784f"/>
  <rect x="24" y="14" width="1" height="1" fill="#a9784f"/>
  <rect x="25" y="14" width="1" height="1" fill="#a9784f"/>
  <rect x="26" y="14" width="1" height="1" fill="#a9784f"/>
  <rect x="27" y="14" width="1" height="1" fill="#a9784f"/>
  <rect x="28" y="14" width="1" height="1" fill="#a9784f"/>
  <rect x="4" y="15" width="1" height="1" fill="#7a5636"/>
  <rect x="5" y="15" width="1" height="1" fill="#7a5636"/>
  <rect x="6" y="15" width="1" height="1" fill="#7a5636"/>
  <rect x="7" y="15" width="1" height="1" fill="#7a5636"/>
  <rect x="8" y="15" width="1" height="1" fill="#7a5636"/>
  <rect x="9" y="15" width="1" height="1" fill="#7a5636"/>
  <rect x="10" y="15" width="1" height="1" fill="#7a5636"/>
  <rect x="11" y="15" width="1" height="1" fill="#7a5636"/>
  <rect x="12" y="15" width="1" height="1" fill="#7a5636"/>
  <rect x="13" y="15" width="1" height="1" fill="#7a5636"/>
  <rect x="14" y="15" width="1" height="1" fill="#7a5636"/>
  <rect x="15" y="15" width="1" height="1" fill="#7a5636"/>
  <rect x="16" y="15" width="1" height="1" fill="#7a5636"/>
  <rect x="17" y="15" width="1" height="1" fill="#7a5636"/>
  <rect x="18" y="15" width="1" height="1" fill="#7a5636"/>
  <rect x="19" y="15" width="1" height="1" fill="#7a5636"/>
  <rect x="20" y="15" width="1" height="1" fill="#7a5636"/>
  <rect x="21" y="15" width="1" height="1" fill="#7a5636"/>
  <rect x="22" y="15" width="1" height="1" fill="#7a5636"/>
  <rect x="23" y="15" width="1" height="1" fill="#7a5636"/>
  <rect x="24" y="15" width="1" height="1" fill="#7a5636"/>
  <rect x="25" y="15" width="1" height="1" fill="#7a5636"/>
  <rect x="26" y="15" width="1" height="1" fill="#7a5636"/>
  <rect x="27" y="15" width="1" height="1" fill="#7a5636"/>
  <rect x="4" y="16" width="1" height="1" fill="#7a5636"/>
  <rect x="5" y="16" width="1" height="1" fill="#7a5636"/>
  <rect x="6" y="16" width="1" height="1" fill="#7a5636"/>
  <rect x="7" y="16" width="1" height="1" fill="#7a5636"/>
  <rect x="8" y="16" width="1" height="1" fill="#7a5636"/>
  <rect x="9" y="16" width="1" height="1" fill="#7a5636"/>
  <rect x="10" y="16" width="1" height="1" fill="#7a5636"/>
  <rect x="11" y="16" width="1" height="1" fill="#7a5636"/>
  <rect x="12" y="16" width="1" height="1" fill="#7a5636"/>
  <rect x="13" y="16" width="1" height="1" fill="#7a5636"/>
  <rect x="14" y="16" width="1" height="1" fill="#7a5636"/>
  <rect x="15" y="16" width="1" height="1" fill="#7a5636"/>
  <rect x="16" y="16" width="1" height="1" fill="#7a5636"/>
  <rect x="17" y="16" width="1" height="1" fill="#7a5636"/>
  <rect x="18" y="16" width="1" height="1" fill="#7a5636"/>
  <rect x="19" y="16" width="1" height="1" fill="#7a5636"/>
  <rect x="20" y="16" width="1" height="1" fill="#7a5636"/>
  <rect x="21" y="16" width="1" height="1" fill="#7a5636"/>
  <rect x="22" y="16" width="1" height="1" fill="#7a5636"/>
  <rect x="23" y="16" width="1" height="1" fill="#7a5636"/>
  <rect x="24" y="16" width="1" height="1" fill="#7a5636"/>
  <rect x="25" y="16" width="1" height="1" fill="#7a5636"/>
  <rect x="26" y="16" width="1" height="1" fill="#7a5636"/>
  <rect x="27" y="16" width="1" height="1" fill="#7a5636"/>
  <rect x="4" y="17" width="1" height="1" fill="#7a5636"/>
  <rect x="5" y="17" width="1" height="1" fill="#7a5636"/>
  <rect x="6" y="17" width="1" height="1" fill="#7a5636"/>
  <rect x="7" y="17" width="1" height="1" fill="#7a5636"/>
  <rect x="8" y="17" width="1" height="1" fill="#7a5636"/>
  <rect x="9" y="17" width="1" height="1" fill="#7a5636"/>
  <rect x="10" y="17" width="1" height="1" fill="#7a5636"/>
  <rect x="11" y="17" width="1" height="1" fill="#7a5636"/>
  <rect x="12" y="17" width="1" height="1" fill="#7a5636"/>
  <rect x="13" y="17" width="1" height="1" fill="#7a5636"/>
  <rect x="14" y="17" width="1" height="1" fill="#7a5636"/>
  <rect x="15" y="17" width="1" height="1" fill="#7a5636"/>
  <rect x="16" y="17" width="1" height="1" fill="#7a5636"/>
  <rect x="17" y="17" width="1" height="1" fill="#7a5636"/>
  <rect x="18" y="17" width="1" height="1" fill="#7a5636"/>
  <rect x="19" y="17" width="1" height="1" fill="#7a5636"/>
  <rect x="20" y="17" width="1" height="1" fill="#7a5636"/>
  <rect x="21" y="17" width="1" height="1" fill="#7a5636"/>
  <rect x="22" y="17" width="1" height="1" fill="#7a5636"/>
  <rect x="23" y="17" width="1" height="1" fill="#7a5636"/>
  <rect x="24" y="17" width="1" height="1" fill="#7a5636"/>
  <rect x="25" y="17" width="1" height="1" fill="#7a5636"/>
  <rect x="26" y="17" width="1" height="1" fill="#7a5636"/>
  <rect x="27" y="17" width="1" height="1" fill="#7a5636"/>
</svg>
