<svg xmlns="http://www.w3.org/2000/svg" viewBox="0 0 32 18" shape-rendering="crispEdges">
  <title>Pixel hamster wizard beside a glowing prophetic wheel</title>
  <rect width="32" height="18" fill="#fbf1de"/>
  <rect x="7" y="0" width="1" height="1" fill="#5a3f68"/>
  <rect x="8" y="0" width="1" height="1" fill="#e8934a"/>
  <rect x="2" y="1" width="1" height="1" fill="#f4e4c1"/>
  <rect x="3" y="1" width="1" height="1" fill="#f4e4c1"/>
  <rect x="7" y="1" width="1" height="1" fill="#5a3f68"/>
  <rect x="8" y="1" width="1" height="1" fill="#5a3f68"/>
  <rect x="2" y="2" width="1" height="1" fill="#f4e4c1"/>
  <rect x="3" y="2" width="1" height="1" fill="#f4e4c1"/>
  <rect x="6" y="2" width="1" height="1" fill="#5a3f68"/>
  <rect x="7" y="2" width="1" height="1" fill="#5a3f68"/>
  <rect x="8" y="2" width="1" height="1" fill="#5a3f68"/>
  <rect x="9" y="2" width="1" height="1" fill="#5a3f68"/>
  <rect x="21" y="2" width="1" height="1" fill="#0c343d"/>
  <rect x="22" y="2" width="1" height="1" fill="#0c343d"/>
  <rect x="23" y="2" width="1" height="1" fill="#0c343d"/>
  <rect x="24" y="2" width="1" height="1" fill="#0c343d"/>
  <rect x="25" y="2" width="1" height="1" fill="#0c343d"/>
  <rect x="5" y="3" width="1" height="1" fill="#5a3f68"/>
  <rect x="6" y="3" width="1" height="1" fill="#5a3f68"/>
  <rect x="7" y="3" width="1" height="1" fill="#5a3f68"/>
  <rect x="8" y="3" width="1" height="1" fill="#5a3f68"/>
  <rect x="9" y="3" width="1" height="1" fill="#5a3f68"/>
  <rect x="10" y="3" width="1" height="1" fill="#5a3f68"/>
  <rect x="19" y="3" width="1" height="1" fill="#0c343d"/>
  <rect x="20" y="3" width="1" height="1" fill="#0c343d"/>
  <rect x="23" y="3" width="1" height="1" fill="#2d7b77"/>
  <rect x="26" y="3" width="1" height="1" fill="#0c343d"/>
  <rect x="27" y="3" width="1" height="1" fill="#0c343d"/>
  <rect x="30" y="3" width="1" height="1" fill="#e8934a"/>
  <rect x="4" y="4" width="1" height="1" fill="#5a3f68"/>
  <rect x="5" y="4" width="1" height="1" fill="#5a3f68"/>
  <rect x="6" y="4" width="1" height="1" fill="#5a3f68"/>
  <rect x="7" y="4" width="1" height="1" fill="#5a3f68"/>
  <rect x="8" y="4" width="1" height="1" fill="#5a3f68"/>
  <rect x="9" y="4" width="1" height="1" fill="#5a3f68"/>
  <rect x="10" y="4" width="1" height="1" fill="#5a3f68"/>
  <rect x="11" y="4" width="1" height="1" fill="#5a3f68"/>
  <rect x="18" y="4" width="1" height="1" fill="#0c343d"/>
  <rect x="23" y="4" width="1" height="1" fill="#2d7b77"/>
  <rect x="28" y="4" width="1" height="1" fill="#0c343d"/>
  <rect x="3" y="5" width="1" height="1" fill="#42b2ae"/>
  <rect x="4" y="5" width="1" height="1" fill="#42b2ae"/>
  <rect x="5" y="5" width="1" height="1" fill="#42b2ae"/>
  <rect x="6" y="5" width="1" height="1" fill="#42b2ae"/>
  <rect x="7" y="5" width="1" height="1" fill="#42b2ae"/>
  <rect x="8" y="5" width="1" height="1" fill="#42b2ae"/>
  <rect x="9" y="5" width="1" height="1" fill="#42b2ae"/>
  <rect x="10" y="5" width="1" height="1" fill="#42b2ae"/>
  <rect x="11" y="5" width="1" height="1" fill="#42b2ae"/>
  <rect x="12" y="5" width="1" height="1" fill="#42b2ae"/>
  <rect x="17" y="5" width="1" height="1" fill="#0c343d"/>
  <rect x="19" y="5" width="1" height="1" fill="#2d7b77"/>
  <rect x="23" y="5" width="1" height="1" fill="#2d7b77"/>
  <rect x="27" y="5" width="1" height="1" fill="#2d7b77"/>
  <rect x="29" y="5" width="1" height="1" fill="#0c343d"/>
  <rect x="4" y="6" width="1" height="1" fill="#8e979c"/>
  <rect x="5" y="6" width="1" height="1" fill="#8e979c"/>
  <rect x="10" y="6" width="1" height="1" fill="#8e979c"/>
  <rect x="11" y="6" width="1" height="1" fill="#8e979c"/>
  <rect x="17" y="6" width="1" height="1" fill="#0c343d"/>
  <rect x="20" y="6" width="1" height="1" fill="#2d7b77"/>
  <rect x="23" y="6" width="1" height="1" fill="#2d7b77"/>
  <rect x="26" y="6" width="1" height="1" fill="#2d7b77"/>
  <rect x="29" y="6" width="1" height="1" fill="#0c343d"/>
  <rect x="4" y="7" width="1" height="1" fill="#e88fa0"/>
  <rect x="5" y="7" width="1" height="1" fill="#8e979c"/>
  <rect x="10" y="7" width="1" height="1" fill="#8e979c"/>
  <rect x="11" y="7" width="1" height="1" fill="#e88fa0"/>
  <rect x="16" y="7" width="1" height="1" fill="#0c343d"/>
  <rect x="21" y="7" width="1" height="1" fill="#2d7b77"/>
  <rect x="23" y="7" width="1" height="1" fill="#2d7b77"/>
  <rect x="25" y="7" width="1" height="1" fill="#2d7b77"/>
  <rect x="30" y="7" width="1" height="1" fill="#0c343d"/>
  <rect x="3" y="8" width="1" height="1" fill="#8e979c"/>
  <rect x="4" y="8" width="1" height="1" fill="#8e979c"/>
  <rect x="5" y="8" width="1" height="1" fill="#8e979c"/>
  <rect x="6" y="8" width="1" height="1" fill="#8e979c"/>
  <rect x="7" y="8" width="1" height="1" fill="#8e979c"/>
  <rect x="8" y="8" width="1" height="1" fill="#8e979c"/>
  <rect x="9" y="8" width="1" height="1" fill="#8e979c"/>
  <rect x="10" y="8" width="1" height="1" fill="#8e979c"/>
  <rect x="11" y="8" width="1" height="1" fill="#8e979c"/>
  <rect x="12" y="8" width="1" height="1" fill="#8e979c"/>
  <rect x="16" y="8" width="1" height="1" fill="#0c343d"/>
  <rect x="22" y="8" width="1" height="1" fill="#42b2ae"/>
  <rect x="23" y="8" width="1" height="1" fill="#42b2ae"/>
  <rect x="24" y="8" width="1" height="1" fill="#2d7b77"/>
  <rect x="30" y="8" width="1" height="1" fill="#0c343d"/>
  <rect x="3" y="9" width="1" height="1" fill="#8e979c"/>
  <rect x="4" y="9" width="1" height="1" fill="#8e979c"/>
  <rect x="5" y="9" width="1" height="1" fill="#8e979c"/>
  <rect x="6" y="9" width="1" height="1" fill="#8e979c"/>
  <rect x="7" y="9" width="1" height="1" fill="#8e979c"/>
  <rect x="8" y="9" width="1" height="1" fill="#8e979c"/>
  <rect x="9" y="9" width="1" height="1" fill="#8e979c"/>
  <rect x="10" y="9" width="1" height="1" fill="#8e979c"/>
  <rect x="11" y="9" width="1" height="1" fill="#8e979c"/>
  <rect x="12" y="9" width="1" height="1" fill="#8e979c"/>
  <rect x="16" y="9" width="1" height="1" fill="#0c343d"/>
  <rect x="17" y="9" width="1" height="1" fill="#2d7b77"/>
  <rect x="18" y="9" width="1" height="1" fill="#2d7b77"/>
  <rect x="19" y="9" width="1" height="1" fill="#2d7b77"/>
  <rect x="20" y="9" width="1" height="1" fill="#2d7b77"/>
  <rect x="21" y="9" width="1" height="1" fill="#2d7b77"/>
  <rect x="22" y="9" width="1" height="1" fill="#42b2ae"/>
  <rect x="23" y="9" width="1" height="1" fill="#42b2ae"/>
  <rect x="24" y="9" width="1" height="1" fill="#2d7b77"/>
  <rect x="25" y="9" width="1" height="1" fill="#2d7b77"/>
  <rect x="26" y="9" width="1" height="1" fill="#2d7b77"/>
  <rect x="27" y="9" width="1" height="1" fill="#2d7b77"/>
  <rect x="28" y="9" width="1" height="1" fill="#2d7b77"/>
  <rect x="29" y="9" width="1" height="1" fill="#2d7b77"/>
  <rect x="30" y="9" width="1" height="1" fill="#0c343d"/>
  <rect x="3" y="10" width="1" height="1" fill="#b4bcc0"/>
  <rect x="4" y="10" width="1" height="1" fill="#8e979c"/>
  <rect x="5" y="10" width="1" height="1" fill="#8e979c"/>
  <rect x="6" y="10" width="1" height="1" fill="#8e979c"/>
  <rect x="7" y="10" width="1" height="1" fill="#8e979c"/>
  <rect x="8" y="10" width="1" height="1" fill="#8e979c"/>
  <rect x="9" y="10" width="1" height="1" fill="#8e979c"/>
  <rect x="10" y="10" width="1" height="1" fill="#8e979c"/>
  <rect x="11" y="10" width="1" height="1" fill="#8e979c"/>
  <rect x="12" y="10" width="1" height="1" fill="#b4bcc0"/>
  <rect x="16" y="10" width="1" height="1" fill="#0c343d"/>
  <rect x="22" y="10" width="1" height="1" fill="#2d7b77"/>
  <rect x="23" y="10" width="1" height="1" fill="#2d7b77"/>
  <rect x="24" y="10" width="1" height="1" fill="#2d7b77"/>
  <rect x="30" y="10" width="1" height="1" fill="#0c343d"/>
  <rect x="3" y="11" width="1" height="1" fill="#b4bcc0"/>
  <rect x="4" y="11" width="1" height="1" fill="#8e979c"/>
  <rect x="5" y="11" width="1" height="1" fill="#8e979c"/>
  <rect x="6" y="11" width="1" height="1" fill="#0c343d"/>
  <rect x="7" y="11" width="1" height="1" fill="#8e979c"/>
  <rect x="8" y="11" width="1" height="1" fill="#8e979c"/>
  <rect x="9" y="11" width="1" height="1" fill="#0c343d"/>
  <rect x="10" y="11" width="1" height="1" fill="#8e979c"/>
  <rect x="11" y="11" width="1" height="1" fill="#8e979c"/>
  <rect x="12" y="11" width="1" height="1" fill="#b4bcc0"/>
  <rect x="13" y="11" width="1" height="1" fill="#8e979c"/>
  <rect x="14" y="11" width="1" height="1" fill="#8e979c"/>
  <rect x="16" y="11" width="1" height="1" fill="#0c343d"/>
  <rect x="21" y="11" width="1" height="1" fill="#2d7b77"/>
  <rect x="23" y="11" width="1" height="1" fill="#2d7b77"/>
  <rect x="25" y="11" width="1" height="1" fill="#2d7b77"/>
  <rect x="30" y="11" width="1" height="1" fill="#0c343d"/>
  <rect x="3" y="12" width="1" height="1" fill="#8e979c"/>
  <rect x="4" y="12" width="1" height="1" fill="#8e979c"/>
  <rect x="5" y="12" width="1" height="1" fill="#8e979c"/>
  <rect x="6" y="12" width="1" height="1" fill="#8e979c"/>
  <rect x="7" y="12" width="1" height="1" fill="#e88fa0"/>
  <rect x="8" y="12" width="1" height="1" fill="#e88fa0"/>
  <rect x="9" y="12" width="1" height="1" fill="#8e979c"/>
  <rect x="10" y="12" width="1" height="1" fill="#8e979c"/>
  <rect x="11" y="12" width="1" height="1" fill="#8e979c"/>
  <rect x="12" y="12" width="1" height="1" fill="#8e979c"/>
  <rect x="13" y="12" width="1" height="1" fill="#8e979c"/>
  <rect x="14" y="12" width="1" height="1" fill="#8e979c"/>
  <rect x="17" y="12" width="1" height="1" fill="#0c343d"/>
  <rect x="20" y="12" width="1" height="1" fill="#2d7b77"/>
  <rect x="23" y="12" width="1" height="1" fill="#2d7b77"/>
  <rect x="26" y="12" width="1" height="1" fill="#2d7b77"/>
  <rect x="29" y="12" width="1" height="1" fill="#0c343d"/>
  <rect x="3" y="13" width="1" height="1" fill="#8e979c"/>
  <rect x="4" y="13" width="1" height="1" fill="#8e979c"/>
  <rect x="5" y="13" width="1" height="1" fill="#8e979c"/>
  <rect x="6" y="13" width="1" height="1" fill="#8e979c"/>
  <rect x="7" y="13" width="1" height="1" fill="#0c343d"/>
  <rect x="8" y="13" width="1" height="1" fill="#8e979c"/>
  <rect x="9" y="13" width="1" height="1" fill="#8e979c"/>
  <rect x="10" y="13" width="1" height="1" fill="#8e979c"/>
  <rect x="11" y="13" width="1" height="1" fill="#8e979c"/>
  <rect x="12" y="13" width="1" height="1" fill="#8e979c"/>
  <rect x="17" y="13" width="1" height="1" fill="#0c343d"/>
  <rect x="19" y="13" width="1" height="1" fill="#2d7b77"/>
  <rect x="23" y="13" width="1" height="1" fill="#2d7b77"/>
  <rect x="27" y="13" width="1" height="1" fill="#2d7b77"/>
  <rect x="29" y="13" width="1" height="1" fill="#0c343d"/>
  <rect x="3" y="14" width="1" height="1" fill="#8e979c"/>
  <rect x="4" y="14" width="1" height="1" fill="#8e979c"/>
  <rect x="5" y="14" width="1" height="1" fill="#8e979c"/>
  <rect x="6" y="14" width="1" height="1" fill="#8e979c"/>
  <rect x="7" y="14" width="1" height="1" fill="#8e979c"/>
  <rect x="8" y="14" width="1" height="1" fill="#8e979c"/>
  <rect x="9" y="14" width="1" height="1" fill="#8e979c"/>
  <rect x="10" y="14" width="1" height="1" fill="#8e979c"/>
  <rect x="11" y="14" width="1" height="1" fill="#8e979c"/>
  <rect x="12" y="14" width="1" height="1" fill="#8e979c"/>
  <rect x="18" y="14" width="1" height="1" fill="#0c343d"/>
  <rect x="23" y="14" width="1" height="1" fill="#2d7b77"/>
  <rect x="28" y="14" width="1" height="1" fill="#0c343d"/>
  <rect x="3" y="15" width="1" height="1" fill="#5a3f68"/>
  <rect x="4" y="15" width="1" height="1" fill="#5a3f68"/>
  <rect x="5" y="15" width="1" height="1" fill="#5a3f68"/>
  <rect x="6" y="15" width="1" height="1" fill="#e9edee"/>
  <rect x="7" y="15" width="1" height="1" fill="#e9edee"/>
  <rect x="8" y="15" width="1" height="1" fill="#3f2c48"/>
  <rect x="9" y="15" width="1" height="1" fill="#e9edee"/>
  <rect x="10" y="15" width="1" height="1" fill="#5a3f68"/>
  <rect x="11" y="15" width="1" height="1" fill="#5a3f68"/>
  <rect x="12" y="15" width="1" height="1" fill="#5a3f68"/>
  <rect x="19" y="15" width="1" height="1" fill="#0c343d"/>
  <rect x="20" y="15" width="1" height="1" fill="#0c343d"/>
  <rect x="23" y="15" width="1" height="1" fill="#2d7b77"/>
  <rect x="26" y="15" width="1" height="1" fill="#0c343d"/>
  <rect x="27" y="15" width="1" height="1" fill="#0c343d"/>
  <rect x="29" y="15" width="1" height="1" fill="#e8934a"/>
  <rect x="3" y="16" width="1" height="1" fill="#5a3f68"/>
  <rect x="4" y="16" width="1" height="1" fill="#5a3f68"/>
  <rect x="5" y="16" width="1" height="1" fill="#5a3f68"/>
  <rect x="6" y="16" width="1" height="1" fill="#e9edee"/>
  <rect x="7" y="16" width="1" height="1" fill="#e9edee"/>
  <rect x="8" y="16" width="1" height="1" fill="#e9edee"/>
  <rect x="9" y="16" width="1" height="1" fill="#e9edee"/>
  <rect x="10" y="16" width="1" height="1" fill="#5a3f68"/>
  <rect x="11" y="16" width="1" height="1" fill="#5a3f68"/>
  <rect x="12" y="16" width="1" height="1" fill="#5a3f68"/>
  <rect x="21" y="16" width="1" height="1" fill="#0c343d"/>
  <rect x="22" y="16" width="1" height="1" fill="#0c343d"/>
  <rect x="23" y="16" width="1" height="1" fill="#0c343d"/>
  <rect x="24" y="16" width="1" height="1" fill="#0c343d"/>
  <rect x="25" y="16" width="1" height="1" fill="#0c343d"/>
  <rect x="3" y="17" width="1" height="1" fill="#5a3f68"/>
  <rect x="4" y="17" width="1" height="1" fill="#5a3f68"/>
  <rect x="5" y="17" width="1" height="1" fill="#5a3f68"/>
  <rect x="6" y="17" width="1" height="1" fill="#e9edee"/>
  <rect x="7" y="17" width="1" height="1" fill="#e9edee"/>
  <rect x="8" y="17" width="1" height="1" fill="#e9edee"/>
  <rect x="9" y="17" width="1" height="1" fill="#e9edee"/>
  <rect x="10" y="17" width="1" height="1" fill="#5a3f68"/>
  <rect x="11" y="17" width="1" height="1" fill="#5a3f68"/>
  <rect x="12" y="17" width="1" height="1" fill="#5a3f68"/>
</svg>
